<?xml version="1.0" encoding="UTF-8"?>
<svg width="32px" height="32px" viewBox="0 0 32 32" version="1.1" xmlns="http://www.w3.org/2000/svg" xmlns:xlink="http://www.w3.org/1999/xlink">
    <title>编组 5备份</title>
    <defs>
        <linearGradient x1="98.9378176%" y1="50%" x2="0.978098081%" y2="50%" id="linearGradient-1">
            <stop stop-color="#A3BDFF" stop-opacity="0.801389894" offset="0%"></stop>
            <stop stop-color="#CCDAFF" offset="100%"></stop>
        </linearGradient>
        <linearGradient x1="98.9378176%" y1="50%" x2="0.978098081%" y2="50%" id="linearGradient-2">
            <stop stop-color="#CCDAFF" stop-opacity="0.8" offset="0%"></stop>
            <stop stop-color="#A3BDFF" offset="100%"></stop>
        </linearGradient>
        <linearGradient x1="50%" y1="0.112594925%" x2="50%" y2="100%" id="linearGradient-3">
            <stop stop-color="#70AEFF" offset="0%"></stop>
            <stop stop-color="#3B79F3" offset="100%"></stop>
        </linearGradient>
    </defs>
    <g id="页面-1" stroke="none" stroke-width="1" fill="none" fill-rule="evenodd">
        <g id="切图下载-无阴影" transform="translate(-91.000000, -576.000000)">
            <g id="编组-5备份" transform="translate(91.000000, 576.000000)">
                <rect id="矩形备份-3" fill-opacity="0.9" fill="#F5F8FF" x="0" y="0" width="32" height="32" rx="6"></rect>
                <path d="M24.5,11 L7.5,11 C6.672,11 6,10.328 6,9.5 L6,9.5 C6,8.672 6.672,8 7.5,8 L24.5,8 C25.328,8 26,8.672 26,9.5 L26,9.5 C26,10.328 25.328,11 24.5,11" id="Fill-11" fill-opacity="0.8" fill="url(#linearGradient-1)"></path>
                <path d="M24.5,25 L7.5,25 C6.672,25 6,24.328 6,23.5 L6,23.5 C6,22.672 6.672,22 7.5,22 L24.5,22 C25.328,22 26,22.672 26,23.5 L26,23.5 C26,24.328 25.328,25 24.5,25" id="Fill-13" fill-opacity="0.8" fill="url(#linearGradient-2)"></path>
                <path d="M19.3917,20.3015 C18.9927,20.3015 18.6157,20.1105 18.3797,19.7855 L14.4997,14.4325 L12.8037,17.4295 L6.7697,17.4295 C6.3557,17.4295 6.0197,17.0935 6.0197,16.6795 C6.0197,16.2655 6.3557,15.9295 6.7697,15.9295 L11.9287,15.9295 L13.3867,13.3555 C13.5977,12.9825 13.9787,12.7465 14.4057,12.7225 C14.8237,12.6975 15.2357,12.8915 15.4877,13.2375 L19.3817,18.6125 L21.1457,15.9295 L25.2717,15.9295 C25.6857,15.9295 26.0217,16.2655 26.0217,16.6795 C26.0217,17.0935 25.6857,17.4295 25.2717,17.4295 L21.9547,17.4295 L20.4367,19.7385 C20.2097,20.0805 19.8307,20.2905 19.4207,20.3005 C19.4117,20.3005 19.4017,20.3015 19.3917,20.3015" id="Fill-19" fill="url(#linearGradient-3)"></path>
            </g>
        </g>
    </g>
</svg>