<?xml version="1.0" encoding="UTF-8"?>
<svg width="44px" height="44px" viewBox="0 0 44 44" version="1.1" xmlns="http://www.w3.org/2000/svg" xmlns:xlink="http://www.w3.org/1999/xlink">
    <title>编组 25备份</title>
    <g id="页面-1" stroke="none" stroke-width="1" fill="none" fill-rule="evenodd">
        <g id="切图下载-无阴影" transform="translate(-91.000000, -206.000000)">
            <g id="编组-25备份" transform="translate(91.000000, 206.000000)">
                <rect id="矩形备份-29" stroke="#F5F5F7" fill="#FEFEFE" x="0.5" y="0.5" width="43" height="43" rx="21.5"></rect>
                <path d="M28.076558,17.1900176 C29.5339493,17.1900176 30.7089075,18.4007126 30.7089075,19.889329 L30.7089075,23.9740552 C30.7089075,25.4619031 29.5336063,26.6733666 28.076558,26.6733666 L15.4797185,26.6733666 C14.0234193,26.6733666 12.847369,25.4615463 12.847369,23.9740552 L12.847,22.53 L12.6048049,22.5308637 C11.1259727,22.5308637 9.92830769,23.7219496 9.92830769,25.1893311 C9.92830769,26.6576899 11.1258235,27.8489238 12.6048049,27.8489238 L13.535,27.848 L13.5354185,27.7565778 C13.5354185,27.6553036 13.6180374,27.5720337 13.7198964,27.5720337 L15.2455172,27.5720337 C15.3417563,27.5720337 15.4208199,27.6463687 15.4292512,27.7399906 L16.648115,27.7408241 C16.7284703,27.7408241 16.792981,27.8060897 16.792981,27.8848585 L16.792981,28.6871752 C16.792981,28.7670693 16.7284703,28.8312097 16.648115,28.8312097 L15.427,28.831 L15.4205878,28.874546 C15.3961779,28.9474274 15.3270043,29 15.2455172,29 L13.7198964,29 C13.6180374,29 13.5354185,28.9178554 13.5354185,28.8165812 L13.535,28.777 L12.6048049,28.7772315 C10.6142231,28.7772315 9,27.1714763 9,25.1893311 C9,23.2081113 10.6144237,21.602556 12.6048049,21.602556 L12.847,21.602 L12.847369,19.889329 C12.847369,18.4010692 14.0230761,17.1900176 15.4797185,17.1900176 L28.076558,17.1900176 Z M28.076558,18.051556 L15.4797185,18.051556 C14.5046949,18.051556 13.7089075,18.8712667 13.7089075,19.889329 L13.7089075,23.9740552 C13.7089075,24.9914127 14.5051062,25.8118281 15.4797185,25.8118281 L28.0761382,25.8118281 L28.2214267,25.8057559 C29.0816253,25.7333564 29.7712684,25.0219606 29.8414796,24.1251608 L29.847369,23.9740552 L29.847369,19.889329 C29.847369,18.9217703 29.1297852,18.133983 28.2214823,18.0576232 L28.076558,18.051556 Z M28.1698842,21.2506793 C28.5135296,21.2506793 28.7982483,21.5027024 28.8471753,21.8308988 L28.8546028,21.931467 C28.8546028,22.2731396 28.6011246,22.5562238 28.2710332,22.6048699 L28.1698842,22.6122547 C27.8262389,22.6122547 27.5415202,22.3602317 27.4925932,22.0320353 L27.4851657,21.931467 C27.4851657,21.5556272 27.7918743,21.2506793 28.1698842,21.2506793 Z M30.3928892,16.2434222 C30.3928892,16.3446964 30.3102703,16.4279663 30.2084113,16.4279663 L28.6827905,16.4279663 C28.5865514,16.4279663 28.5074878,16.3536313 28.4990565,16.2600094 L27.2801927,16.2591759 C27.1998373,16.2591759 27.1353267,16.1939103 27.1353267,16.1151415 L27.1353267,15.3128248 C27.1353267,15.2329307 27.1998373,15.1687903 27.2801927,15.1687903 L28.5,15.168 L28.5077199,15.125454 C28.5321298,15.0525726 28.6013034,15 28.6827905,15 L30.2084113,15 C30.3102703,15 30.3928892,15.0821446 30.3928892,15.1834188 L30.392,15.222 L31.3235028,15.2227685 C33.3140846,15.2227685 34.9283077,16.8285237 34.9283077,18.8106689 C34.9283077,20.7918887 33.3138839,22.397444 31.3235028,22.397444 L30.7146126,22.397444 L30.7146126,21.4691363 L31.3235028,21.4691363 C32.802335,21.4691363 34,20.2780504 34,18.8106689 C34,17.3423101 32.8024842,16.1510762 31.3235028,16.1510762 L30.392,16.151 L30.3928892,16.2434222 Z" id="形状结合" fill="#CECFD2" fill-rule="nonzero"></path>
            </g>
        </g>
    </g>
</svg>