<?xml version="1.0" encoding="UTF-8"?>
<svg width="32px" height="32px" viewBox="0 0 32 32" version="1.1" xmlns="http://www.w3.org/2000/svg" xmlns:xlink="http://www.w3.org/1999/xlink">
    <title>编组 10备份</title>
    <defs>
        <linearGradient x1="50%" y1="0.112594925%" x2="50%" y2="100%" id="linearGradient-1">
            <stop stop-color="#70AEFF" offset="0%"></stop>
            <stop stop-color="#3B79F3" offset="100%"></stop>
        </linearGradient>
        <linearGradient x1="98.9378176%" y1="50%" x2="0.978098081%" y2="50%" id="linearGradient-2">
            <stop stop-color="#A3BDFF" stop-opacity="0.801389894" offset="0%"></stop>
            <stop stop-color="#CCDAFF" offset="100%"></stop>
        </linearGradient>
        <linearGradient x1="98.9378176%" y1="50%" x2="0.978098081%" y2="50%" id="linearGradient-3">
            <stop stop-color="#CCDAFF" offset="0%"></stop>
            <stop stop-color="#A3BDFF" stop-opacity="0.801389894" offset="100%"></stop>
        </linearGradient>
    </defs>
    <g id="页面-1" stroke="none" stroke-width="1" fill="none" fill-rule="evenodd">
        <g id="切图下载-无阴影" transform="translate(-91.000000, -629.000000)">
            <g id="编组-10备份" transform="translate(91.000000, 629.000000)">
                <rect id="矩形备份-4" fill="#F5F8FF" x="0" y="0" width="32" height="32" rx="6"></rect>
                <path d="M18.0598,19 L18.0598,19 C16.6798,19 15.5598,17.882 15.5598,16.499 C15.5598,15.118 16.6798,14 18.0598,14 C19.4398,14 20.5598,15.118 20.5598,16.499 C20.5598,17.882 19.4398,19 18.0598,19" id="Fill-1" fill="url(#linearGradient-1)"></path>
                <path d="M24.5,11 L7.5,11 C6.672,11 6,10.328 6,9.5 L6,9.5 C6,8.672 6.672,8 7.5,8 L24.5,8 C25.328,8 26,8.672 26,9.5 L26,9.5 C26,10.328 25.328,11 24.5,11" id="Fill-7" fill-opacity="0.8" fill="url(#linearGradient-2)"></path>
                <path d="M24.5,25 L7.5,25 C6.672,25 6,24.328 6,23.5 L6,23.5 C6,22.672 6.672,22 7.5,22 L24.5,22 C25.328,22 26,22.672 26,23.5 L26,23.5 C26,24.328 25.328,25 24.5,25" id="Fill-9" fill-opacity="0.8" fill="url(#linearGradient-3)"></path>
            </g>
        </g>
    </g>
</svg>