<?xml version="1.0" encoding="UTF-8"?>
<svg width="44px" height="44px" viewBox="0 0 44 44" version="1.1" xmlns="http://www.w3.org/2000/svg" xmlns:xlink="http://www.w3.org/1999/xlink">
    <title>编组 26备份</title>
    <defs>
        <linearGradient x1="50%" y1="0.112594925%" x2="50%" y2="100%" id="linearGradient-1">
            <stop stop-color="#70AEFF" offset="0%"></stop>
            <stop stop-color="#3B79F3" offset="100%"></stop>
        </linearGradient>
        <linearGradient x1="50%" y1="0.112594925%" x2="50%" y2="100%" id="linearGradient-2">
            <stop stop-color="#70AEFF" offset="0%"></stop>
            <stop stop-color="#3B79F3" offset="100%"></stop>
        </linearGradient>
    </defs>
    <g id="页面-1" stroke="none" stroke-width="1" fill="none" fill-rule="evenodd">
        <g id="切图下载-无阴影" transform="translate(-275.000000, -206.000000)">
            <g id="编组-26备份" transform="translate(275.000000, 206.000000)">
                <rect id="矩形备份-40" stroke="url(#linearGradient-1)" stroke-width="1.2" fill="#FEFEFE" x="0.6" y="0.6" width="42.8" height="42.8" rx="21.4"></rect>
                <g id="编组-17" transform="translate(9.500000, 15.000000)">
                    <path d="M4.21369513,6.57075033 L4.21369513,7.49905802 L3.60480494,7.49905802 C2.12597273,7.49905802 0.928307692,8.69014396 0.928307692,10.1575255 C0.928307692,11.6258843 2.12582346,12.8171182 3.60480494,12.8171182 L4.535,12.8167503 L4.53541848,12.7247722 C4.53541848,12.623498 4.61803741,12.5402281 4.71989637,12.5402281 L6.24551715,12.5402281 C6.34185155,12.5402281 6.42097638,12.6147103 6.42927603,12.708463 L7.64811495,12.7090184 C7.72847035,12.7090184 7.79298102,12.774284 7.79298102,12.8530528 L7.79298102,13.6553696 C7.79298102,13.7352637 7.72847035,13.799404 7.64811495,13.799404 L6.427,13.7987503 L6.42058779,13.8427404 C6.39617786,13.9156218 6.32700431,13.9681944 6.24551715,13.9681944 L4.71989637,13.9681944 C4.61803741,13.9681944 4.53541848,13.8860497 4.53541848,13.7847755 L4.535,13.7447503 L3.60480494,13.7454259 C1.61422307,13.7454259 0,12.1396706 0,10.1575255 C0,8.1763056 1.61442375,6.57075033 3.60480494,6.57075033 L4.21369513,6.57075033 Z M20.6993761,2.22044605e-16 C20.801235,2.22044605e-16 20.8838539,0.0821446319 20.8838539,0.183418836 L20.8832914,0.222 L21.8144675,0.222768496 C23.8050494,0.222768496 25.4192724,1.82852374 25.4192724,3.81066889 C25.4192724,5.79188875 23.8048487,7.39744402 21.8144675,7.39744402 L21.215,7.397 L21.2150362,8.96080932 C21.2150362,10.2132336 20.2300038,11.2293515 19.0134559,11.2293515 L6.41661647,11.2293515 C5.20116069,11.2293515 4.2150362,10.2132336 4.2150362,8.96080932 L4.2150362,4.8760831 C4.2150362,3.62253351 5.20116069,2.60754094 6.41661647,2.60754094 L19.0134559,2.60754094 C20.2300038,2.60754094 21.2150362,3.62253351 21.2150362,4.8760831 L21.215,6.469 L21.8144675,6.46913633 C23.2932997,6.46913633 24.4909647,5.27805039 24.4909647,3.81066889 C24.4909647,2.34231007 23.293449,1.15107619 21.8144675,1.15107619 L20.8832914,1.151 L20.8838539,1.24342217 C20.8838539,1.34469637 20.801235,1.42796627 20.6993761,1.42796627 L19.1737553,1.42796627 C19.0775161,1.42796627 18.9984525,1.3536313 18.9900212,1.26000942 L17.7711575,1.25917593 C17.6908021,1.25917593 17.6262914,1.19391034 17.6262914,1.11514151 L17.6262914,0.312824763 C17.6262914,0.232930669 17.6908021,0.16879034 17.7711575,0.16879034 L18.9912914,0.168 L18.9986846,0.125453983 C19.0230946,0.0525725644 19.0922681,0 19.1737553,0 L20.6993761,2.22044605e-16 Z" id="形状结合" fill="url(#linearGradient-2)"></path>
                    <path d="M19.1067822,7.59900886 L19.1067822,7.59900886 C18.7287723,7.59900886 18.4220637,7.29406098 18.4220637,6.91822116 L18.4220637,6.91822116 C18.4220637,6.54238133 18.7287723,6.23743345 19.1067822,6.23743345 C19.4847921,6.23743345 19.7915007,6.54238133 19.7915007,6.91822116 L19.7915007,6.91822116 C19.7915007,7.29406098 19.4847921,7.59900886 19.1067822,7.59900886" id="Fill-29" fill="#EFF4FF"></path>
                </g>
            </g>
        </g>
    </g>
</svg>