<?xml version="1.0" encoding="UTF-8"?>
<svg width="44px" height="44px" viewBox="0 0 44 44" version="1.1" xmlns="http://www.w3.org/2000/svg" xmlns:xlink="http://www.w3.org/1999/xlink">
    <title>编组 22备份 2</title>
    <g id="页面-1" stroke="none" stroke-width="1" fill="none" fill-rule="evenodd">
        <g id="切图下载-无阴影" transform="translate(-91.000000, -139.000000)">
            <g id="编组-22备份-2" transform="translate(91.000000, 139.000000)">
                <rect id="矩形备份-25" stroke="#F5F5F7" fill="#FEFEFE" x="0.5" y="0.5" width="43" height="43" rx="21.5"></rect>
                <path d="M25.2205532,14 C26.6454946,14 27.9021893,14.9316951 28.3132176,16.2932984 L29.291,19.534 L29.3787234,19.53401 C30.7172649,19.53401 31.8,20.6321709 31.8,21.9840838 L31.8,25.6742165 C31.8,27.0102444 30.7425597,28.0984484 29.4257997,28.1238368 L29.425,28.4020241 C29.425,29.1727552 28.8067415,29.8 28.0412447,29.8 L26.6067447,29.8 C25.8412351,29.8 25.2227872,29.1727411 25.2227872,28.4020241 L25.222,28.124 L18.577,28.124 L18.5771319,28.4020241 C18.5771319,29.1727552 17.9588734,29.8 17.1933766,29.8 L15.7588766,29.8 C14.993367,29.8 14.3749191,29.1727411 14.3749191,28.4020241 L14.374,28.123 L14.2619324,28.1190731 C12.9978487,28.0360314 12,26.9720529 12,25.6742165 L12,21.9840838 C12,20.6321709 13.0827351,19.53401 14.4212766,19.53401 L14.508,19.534 L15.4867906,16.293271 C15.8978107,14.9316951 17.1545054,14 18.5794468,14 L25.2205532,14 Z M17.677,28.124 L15.272,28.124 L15.2733553,28.4020241 C15.2733553,28.647038 15.4466857,28.8500616 15.6721292,28.8921531 L15.7588766,28.9001614 L17.1933766,28.9001614 C17.4593414,28.9001614 17.6786957,28.6776469 17.6786957,28.4020241 L17.677,28.124 Z M28.525,28.124 L26.12,28.124 L26.1212234,28.4020241 C26.1212234,28.647038 26.2945538,28.8500616 26.5199973,28.8921531 L26.6067447,28.9001614 L28.0412447,28.9001614 C28.3072095,28.9001614 28.5265638,28.6776469 28.5265638,28.4020241 L28.525,28.124 Z M29.3787234,20.4365137 L14.4212766,20.4365137 C13.5847223,20.4365137 12.9010638,21.1299123 12.9010638,21.9840838 L12.9010638,25.6742165 C12.9010638,26.5122261 13.559096,27.1954893 14.3739588,27.2210454 L18.5771319,27.2168459 L18.577,27.221 L25.222,27.221 L29.425,27.2168459 L29.425,27.219 L29.5166424,27.2154575 C30.2891297,27.144246 30.8989362,26.480934 30.8989362,25.6742165 L30.8989362,21.9840838 C30.8989362,21.1299123 30.2152777,20.4365137 29.3787234,20.4365137 Z M28.1671702,22.4041133 C28.6119032,22.4041133 28.9702128,22.7675277 28.9702128,23.212898 L28.9702128,24.4454023 C28.9702128,24.8907726 28.6119032,25.254187 28.1671702,25.254187 L15.6328298,25.254187 C15.1880968,25.254187 14.8297872,24.8907726 14.8297872,24.4454023 L14.8297872,23.212898 C14.8297872,22.7675277 15.1880968,22.4041133 15.6328298,22.4041133 L28.1671702,22.4041133 Z M28.0687872,23.3061133 L15.7307872,23.3061133 L15.7307872,24.3511133 L28.0687872,24.3511133 L28.0687872,23.3061133 Z M25.2205532,14.9016837 L18.5794468,14.9016837 C17.5418963,14.9016837 16.6471288,15.5647119 16.3484717,16.5541663 L15.449,19.534 L28.35,19.534 L27.4515321,16.5541788 C27.1694635,15.6196823 26.3556825,14.976361 25.3920785,14.9077651 L25.2205532,14.9016837 Z" id="形状结合" fill="#CECFD2" fill-rule="nonzero"></path>
            </g>
        </g>
    </g>
</svg>