<?xml version="1.0" encoding="UTF-8"?>
<svg width="44px" height="44px" viewBox="0 0 44 44" version="1.1" xmlns="http://www.w3.org/2000/svg" xmlns:xlink="http://www.w3.org/1999/xlink">
    <title>编组 13备份</title>
    <defs>
        <linearGradient x1="50%" y1="0.112594925%" x2="50%" y2="100%" id="linearGradient-1">
            <stop stop-color="#70AEFF" offset="0%"></stop>
            <stop stop-color="#3B79F3" offset="100%"></stop>
        </linearGradient>
        <linearGradient x1="50%" y1="0.112594925%" x2="50%" y2="100%" id="linearGradient-2">
            <stop stop-color="#70AEFF" offset="0%"></stop>
            <stop stop-color="#3B79F3" offset="100%"></stop>
        </linearGradient>
    </defs>
    <g id="页面-1" stroke="none" stroke-width="1" fill="none" fill-rule="evenodd">
        <g id="切图下载-无阴影" transform="translate(-275.000000, -139.000000)">
            <g id="编组-13备份" transform="translate(275.000000, 139.000000)">
                <rect id="矩形备份-24" stroke="url(#linearGradient-1)" stroke-width="1.2" fill="#FEFEFE" x="0.6" y="0.6" width="42.8" height="42.8" rx="21.4"></rect>
                <g id="编组-19" transform="translate(12.500000, 14.500000)">
                    <path d="M16.958,13.1214 L2.019,13.1214 C0.904,13.1214 0,12.2174 0,11.1024 L0,7.4684 C0,6.3534 0.904,5.4504 2.019,5.4504 L16.958,5.4504 C18.073,5.4504 18.977,6.3534 18.977,7.4684 L18.977,11.1024 C18.977,12.2174 18.073,13.1214 16.958,13.1214 M16.6047,5.45 L2.3717,5.45 L3.4657,1.943 C3.8247,0.79 4.9247,0 6.1717,0 L12.8047,0 C14.0517,0 15.1517,0.79 15.5117,1.943 L16.6047,5.45 Z M4.8175,14.7715 L3.3245,14.7715 C2.7985,14.7715 2.3725,14.3455 2.3725,13.8185 L2.3725,13.1215 L5.7705,13.1215 L5.7705,13.8185 C5.7705,14.3455 5.3435,14.7715 4.8175,14.7715 M15.6521,14.7715 L14.1591,14.7715 C13.6331,14.7715 13.2071,14.3455 13.2071,13.8185 L13.2071,13.1215 L16.6051,13.1215 L16.6051,13.8185 C16.6051,14.3455 16.1781,14.7715 15.6521,14.7715" id="形状结合备份" fill="url(#linearGradient-2)"></path>
                    <path d="M2.6244,10.0932 L2.6244,8.4782 C2.6244,8.2552 2.8054,8.0742 3.0284,8.0742 L15.9484,8.0742 C16.1714,8.0742 16.3524,8.2552 16.3524,8.4782 L16.3524,10.0932 C16.3524,10.3162 16.1714,10.4972 15.9484,10.4972 L3.0284,10.4972 C2.8054,10.4972 2.6244,10.3162 2.6244,10.0932" id="Fill-3备份-4" fill="#EFF4FF"></path>
                </g>
            </g>
        </g>
    </g>
</svg>