<?xml version="1.0" encoding="UTF-8"?>
<svg width="44px" height="44px" viewBox="0 0 44 44" version="1.1" xmlns="http://www.w3.org/2000/svg" xmlns:xlink="http://www.w3.org/1999/xlink">
    <title>编组 23备份</title>
    <g id="页面-1" stroke="none" stroke-width="1" fill="none" fill-rule="evenodd">
        <g id="切图下载-无阴影" transform="translate(-91.000000, -273.000000)">
            <g id="编组-23备份" transform="translate(91.000000, 273.000000)">
                <rect id="矩形备份-21" stroke="#F5F5F7" fill="#FEFEFE" x="0.5" y="0.5" width="43" height="43" rx="21.5"></rect>
                <path d="M26,13 C27.1045695,13 28,13.8954305 28,15 L28,29 C28,30.1045695 27.1045695,31 26,31 L17,31 C15.8954305,31 15,30.1045695 15,29 L15,15 C15,13.8954305 15.8954305,13 17,13 L26,13 Z M26,13.8 L17,13.8 C16.3372583,13.8 15.8,14.3372583 15.8,15 L15.8,29 C15.8,29.6627417 16.3372583,30.2 17,30.2 L26,30.2 C26.6627417,30.2 27.2,29.6627417 27.2,29 L27.2,15 C27.2,14.3372583 26.6627417,13.8 26,13.8 Z M21.5588598,27.6642068 C22.1111445,27.6642068 22.5588598,28.1119221 22.5588598,28.6642068 C22.5588598,29.2164916 22.1111445,29.6642068 21.5588598,29.6642068 C21.006575,29.6642068 20.5588598,29.2164916 20.5588598,28.6642068 C20.5588598,28.1119221 21.006575,27.6642068 21.5588598,27.6642068 Z M25,15 C25.5522847,15 26,15.4477153 26,16 L26,26 C26,26.5522847 25.5522847,27 25,27 L18,27 C17.4477153,27 17,26.5522847 17,26 L17,16 C17,15.4477153 17.4477153,15 18,15 L25,15 Z M25,15.8 L18,15.8 C17.8895431,15.8 17.8,15.8895431 17.8,16 L17.8,26 C17.8,26.1104569 17.8895431,26.2 18,26.2 L25,26.2 C25.1104569,26.2 25.2,26.1104569 25.2,26 L25.2,16 C25.2,15.8895431 25.1104569,15.8 25,15.8 Z" id="形状结合" fill="#CECFD2" fill-rule="nonzero"></path>
            </g>
        </g>
    </g>
</svg>