<?xml version="1.0" encoding="UTF-8"?>
<svg width="21px" height="21px" viewBox="0 0 21 21" version="1.1" xmlns="http://www.w3.org/2000/svg" xmlns:xlink="http://www.w3.org/1999/xlink">
    <title>编组备份 2</title>
    <g id="页面-1" stroke="none" stroke-width="1" fill="none" fill-rule="evenodd">
        <g id="切图下载-无阴影" transform="translate(-95.000000, -1314.000000)" fill-rule="nonzero" stroke="#FFFFFF">
            <g id="编组备份-2" transform="translate(96.000000, 1315.000000)">
                <circle id="椭圆_33" stroke-width="1.7" cx="9.5" cy="9.5" r="9.5"></circle>
                <path d="M9.50023642,4.50149587 C7.84437454,4.50396657 6.50270787,5.7281188 6.5,7.23894641 C6.51789176,7.5728045 6.81977514,7.83510721 7.18611964,7.83510721 C7.55246414,7.83510721 7.85434752,7.5728045 7.87223928,7.23894641 C7.87245686,6.51478735 8.44496693,5.89630898 9.22741924,5.77495557 C10.0098716,5.65360217 10.7742,6.06474535 11.0366495,6.7481664 C11.299099,7.43158745 10.9831719,8.18808546 10.2888232,8.53886144 C9.36443091,9.02571613 8.80020661,9.93005656 8.81329705,10.9038392 C8.83118881,11.2376973 9.13307219,11.5 9.49941669,11.5 C9.86576118,11.5 10.1676446,11.2376973 10.1855363,10.9038392 C10.1699728,10.3844971 10.4643341,9.89830669 10.9544494,9.63384165 C12.1503445,9.02832029 12.7464587,7.76178824 12.4042228,6.55358497 C12.0619869,5.34538169 10.8679332,4.50099389 9.50023642,4.5 L9.50023642,4.50149587 Z" id="路径_174" stroke-width="0.2" fill="#FFFFFF"></path>
                <circle id="椭圆_32" stroke-width="0.2" fill="#FFFFFF" cx="9.5" cy="13.5" r="1"></circle>
            </g>
        </g>
    </g>
</svg>