<?xml version="1.0" encoding="UTF-8"?>
<svg width="15px" height="15px" viewBox="0 0 15 15" version="1.1" xmlns="http://www.w3.org/2000/svg" xmlns:xlink="http://www.w3.org/1999/xlink">
    <title>编组</title>
    <defs>
        <polygon id="path-1" points="0 -1.77635684e-15 7.37704729 -1.77635684e-15 7.37704729 7.68 0 7.68"></polygon>
    </defs>
    <g id="页面-1" stroke="none" stroke-width="1" fill="none" fill-rule="evenodd">
        <g id="切图下载-无阴影" transform="translate(-92.000000, -1565.000000)">
            <g id="编组" transform="translate(92.000000, 1565.000000)">
                <polygon id="Fill-1" fill="#FD564F" points="2.5399 6.6184 2.5399 5.5874 12.4599 5.5874 12.4599 6.6184"></polygon>
                <polygon id="Fill-2" fill="#FD564F" points="8.89 12.206 12.46 12.206 12.46 11.176 8.89 11.176"></polygon>
                <polygon id="Fill-3" fill="#FD564F" points="8.89 9.412 12.46 9.412 12.46 8.382 8.89 8.382"></polygon>
                <g>
                    <g transform="translate(0.000000, 7.319800)">
                        <mask id="mask-2" fill="white">
                            <use xlink:href="#path-1"></use>
                        </mask>
                        <g id="Clip-5"></g>
                        <path d="M7.2941,2.047 L7.2751,2.013 C7.2631,1.989 7.2481,1.967 7.2291,1.947 L5.4341,0.15 C5.3371,0.054 5.2061,-1.77635684e-15 5.0701,-1.77635684e-15 L5.0691,-1.77635684e-15 C4.8621,0.001 4.6751,0.126 4.5951,0.318 C4.5161,0.51 4.5591,0.73 4.7051,0.878 L5.6221,1.795 L3.1031,1.795 C1.6541,1.795 0.3061,2.767 0.0491,4.193 C-0.2869,6.054 1.1421,7.68 2.9431,7.68 L6.1101,7.68 L6.1101,6.65 L3.0891,6.65 C2.1111,6.65 1.1861,5.985 1.0501,5.016 C0.8841,3.836 1.7951,2.826 2.9431,2.826 L5.6221,2.826 L4.7061,3.743 C4.5591,3.89 4.5151,4.111 4.5941,4.303 C4.6741,4.495 4.8611,4.621 5.0691,4.621 L5.0701,4.621 C5.2061,4.622 5.3381,4.568 5.4341,4.471 L7.2301,2.675 C7.2481,2.654 7.2641,2.63 7.2761,2.605 L7.2941,2.574 C7.3031,2.559 7.3131,2.545 7.3231,2.531 C7.3921,2.383 7.3921,2.238 7.3391,2.111 C7.3231,2.091 7.3081,2.069 7.2941,2.047" id="Fill-4" fill="#FD564F" mask="url(#mask-2)"></path>
                    </g>
                    <polygon id="Fill-6" fill="#FD564F" points="12.4601 3.8242 12.4601 2.7932 2.5401 2.7932 2.5401 3.8242"></polygon>
                    <path d="M13.728,0 L1.272,0 C0.569,0 0,0.569 0,1.272 L0,7.08 L1.03,7.08 L1.03,1.666 C1.03,1.315 1.315,1.03 1.666,1.03 L13.334,1.03 C13.685,1.03 13.97,1.315 13.97,1.666 L13.97,13.334 C13.97,13.685 13.685,13.97 13.334,13.97 L8.89,13.97 L8.89,15 L13.728,15 C14.43,15 15,14.431 15,13.728 L15,1.272 C15,0.569 14.43,0 13.728,0" id="Fill-8" fill="#FD564F"></path>
                </g>
            </g>
        </g>
    </g>
</svg>